PathFileType	4	(X/Y/Z)	c:/Users/goper/Files/vsCode/490R/osim_files/A01/A01_Slow_03.trc
DataRate	CameraRate	NumFrames	NumMarkers	Units                	OrigDataRate	OrigDataStartFrame	OrigNumFrames
120.00	120.00	11	36	mm	120.0	629	1676
                Frame#	Time	Mobility_markerset:LPSIS			Mobility_markerset:LASIS			Mobility_markerset:LTH1			Mobility_markerset:LTH2			Mobility_markerset:LTH3			Mobility_markerset:LTH4			Mobility_markerset:LLFE			Mobility_markerset:LMFE			Mobility_markerset:LSH1			Mobility_markerset:LSH2			Mobility_markerset:LSH3			Mobility_markerset:LSH4			Mobility_markerset:LLMAL			Mobility_markerset:LMMAL			Mobility_markerset:LCAL			Mobility_markerset:LMTP5			Mobility_markerset:LTOE			Mobility_markerset:LMTP1			Mobility_markerset:RPSIS			Mobility_markerset:RASIS			Mobility_markerset:RTH1			Mobility_markerset:RTH2			Mobility_markerset:RTH3			Mobility_markerset:RTH4			Mobility_markerset:RLFE			Mobility_markerset:RMFE			Mobility_markerset:RSH1			Mobility_markerset:RSH2			Mobility_markerset:RSH3			Mobility_markerset:RSH4			Mobility_markerset:RLMAL			Mobility_markerset:RMMAL			Mobility_markerset:RCAL			Mobility_markerset:RMTP1			Mobility_markerset:RTOE			Mobility_markerset:RMTP5		
		X1	Y1	Z1	X2	Y2	Z2	X3	Y3	Z3	X4	Y4	Z4	X5	Y5	Z5	X6	Y6	Z6	X7	Y7	Z7	X8	Y8	Z8	X9	Y9	Z9	X10	Y10	Z10	X11	Y11	Z11	X12	Y12	Z12	X13	Y13	Z13	X14	Y14	Z14	X15	Y15	Z15	X16	Y16	Z16	X17	Y17	Z17	X18	Y18	Z18	X19	Y19	Z19	X20	Y20	Z20	X21	Y21	Z21	X22	Y22	Z22	X23	Y23	Z23	X24	Y24	Z24	X25	Y25	Z25	X26	Y26	Z26	X27	Y27	Z27	X28	Y28	Z28	X29	Y29	Z29	X30	Y30	Z30	X31	Y31	Z31	X32	Y32	Z32	X33	Y33	Z33	X34	Y34	Z34	X35	Y35	Z35	X36	Y36	Z36

629	5.23333	548.64453	1044.92151	250.54218	316.95569	1032.09460	359.26791	309.72119	713.86890	431.69855	284.38834	673.35406	429.02808	255.95677	740.58679	433.78503	239.36012	697.58453	426.91080	237.64026	560.50281	401.73950	0.00000	0.00000	0.00000	351.54187	439.76352	370.99344	376.35245	399.43915	369.35416	300.67618	403.73587	377.97601	331.92621	369.48831	373.37369	488.24011	174.54254	333.24982	481.05920	176.77502	248.30309	563.56744	189.65321	276.10605	400.78366	60.18529	370.25549	354.51874	67.10351	309.75757	378.94931	66.41123	273.43658	539.82593	1047.14795	149.29832	300.78534	1010.66583	97.26952	356.27243	687.78973	33.77265	354.10455	645.73187	40.71251	418.43948	677.07483	36.00966	405.23575	635.92615	44.53669	352.23853	501.63745	92.69449	345.84811	521.30865	212.02371	458.96533	309.85034	97.79089	460.29755	265.01013	101.38715	397.25717	300.76038	96.57838	406.85608	257.59036	99.78609	452.88284	88.03575	144.90051	429.05222	110.47826	227.81258	508.04514	65.87367	195.81348	302.72821	45.55225	240.05833	267.49994	57.26267	193.66574	320.57941	32.80740	125.67937
630	5.24167	540.58331	1045.86499	251.26474	307.97311	1033.29443	357.93509	296.53036	716.59686	430.68619	271.04077	676.78113	427.95312	242.62943	744.51740	432.95697	225.62778	702.03156	425.31616	223.64532	564.05096	399.67111	0.00000	0.00000	0.00000	332.72803	438.58575	369.99036	356.16144	397.59564	368.59970	280.84412	404.33063	377.27322	310.39667	368.58047	372.87637	459.04187	167.87857	334.59912	452.40988	169.49464	249.72415	534.75726	179.53925	277.28345	367.23553	57.37912	373.05295	321.32977	65.37296	312.52887	344.39902	63.55501	275.48315	532.11084	1047.76880	150.04680	293.51096	1010.89319	96.16563	352.57001	687.84985	33.78231	350.49408	645.68738	40.83774	414.57022	677.65826	36.64531	401.69022	636.34045	45.01340	349.02423	501.33755	92.95641	342.48364	521.18652	211.90419	457.33292	310.51895	97.98685	458.89328	265.65811	101.63126	395.77756	301.20111	96.58759	405.46558	257.84341	99.97926	452.46445	88.59781	145.13802	428.56570	110.80651	228.02457	507.69958	66.48837	196.05370	302.65097	45.54231	240.14410	267.24216	57.01644	193.70660	320.80453	33.16922	125.65970
631	5.25000	532.29089	1046.58191	252.13571	299.00766	1034.53687	356.60413	285.06696	719.74170	429.23849	258.09033	679.95038	426.59760	230.55345	748.21375	430.74744	213.16183	705.72626	423.49438	210.12323	567.23694	397.54517	0.00000	0.00000	0.00000	314.04697	437.26816	368.94818	335.67633	395.13492	368.03503	261.30634	404.78329	376.57364	289.04172	367.70972	372.33023	429.57892	161.40977	335.99738	422.78732	162.85060	250.94304	505.53314	169.52756	278.36346	333.83490	55.03655	375.91278	288.01532	64.09508	315.44678	310.69531	61.13156	278.28375	524.35272	1048.29663	150.91853	286.26895	1011.07410	95.14964	348.18600	687.86072	34.38098	346.75656	645.66400	41.10044	411.14307	678.31165	36.84400	398.39554	636.79657	45.22503	345.78748	501.15417	93.23382	339.35785	520.99475	212.03481	455.44318	311.04123	98.15298	457.29160	266.21588	101.79986	394.30853	301.57654	96.78958	403.93842	258.11447	100.28902	452.02457	89.10882	145.43135	428.27484	111.13485	228.31241	507.42023	67.03969	196.24791	303.10751	44.93917	240.05309	266.99969	56.73717	193.75642	320.68643	33.23273	125.69682
632	5.25833	524.04663	1047.18274	253.19527	290.17773	1035.42236	355.40356	273.03912	721.94141	428.19833	245.41702	682.05469	425.82590	219.72614	751.04706	428.33258	201.22696	709.21204	421.22391	196.79332	569.98730	395.38181	0.00000	0.00000	0.00000	295.45905	435.77573	367.89062	315.39703	392.72403	367.39502	241.86497	405.30902	377.42276	267.64157	366.66562	371.78894	399.93317	155.27820	337.37729	393.44290	155.98303	252.49651	475.91821	159.69377	279.55069	299.85904	53.19908	378.55783	254.60866	63.27236	318.09869	277.04184	59.08136	280.93375	516.62689	1048.74902	151.96510	278.79865	1011.27124	93.99145	344.29108	687.88080	34.44690	342.81952	645.63727	41.39063	406.88678	678.81586	37.40572	394.51663	637.24103	45.67329	342.56500	500.94266	93.44269	336.01718	520.85242	212.02151	453.56042	311.61948	98.22305	455.68692	266.81458	101.92157	391.97934	301.44379	97.36236	402.30048	258.44623	100.61433	451.62216	89.64376	145.67322	427.62329	111.63989	228.16978	507.07999	67.57394	196.48479	303.22861	44.79460	240.17439	266.80316	56.46437	193.78262	320.63049	33.24862	125.72709
633	5.26667	515.65094	1047.61267	254.39832	281.31927	1036.33484	354.28278	261.14200	723.83972	426.98715	233.22118	684.42017	424.49747	210.03886	752.76941	426.00943	189.77928	711.90985	419.23438	183.84550	572.42719	393.21078	0.00000	0.00000	0.00000	276.95990	434.01697	366.81808	295.15088	390.24350	366.73544	222.38707	405.81335	376.64963	246.37424	365.56552	371.13736	369.96039	149.32672	338.77533	362.87869	149.66704	253.50716	446.12311	150.13489	280.84244	265.94620	51.72145	380.92795	221.14764	62.99512	320.44675	243.03738	57.80490	283.22714	509.23929	1049.06580	153.17535	271.65018	1011.27716	93.19627	339.27887	687.51306	35.10280	338.88898	645.63318	41.69859	402.58295	679.33917	37.82313	390.58728	637.67291	46.04483	339.73480	500.79410	93.58384	332.77612	520.64056	212.20845	451.69876	312.21176	98.40870	454.15802	267.44345	102.10725	390.10321	301.61191	97.69825	400.75070	258.76428	100.91248	451.22174	90.23504	145.93040	429.57385	113.72347	228.69426	506.80493	68.08847	196.72226	302.84875	44.66407	240.12335	266.62854	56.21841	193.81148	320.52719	33.25338	125.74878
634	5.27500	507.34055	1047.97876	255.75421	272.43777	1037.12256	353.06729	250.90846	725.14740	425.25433	221.79092	686.15686	422.98721	197.87686	755.45105	424.65613	179.09486	713.90979	416.98169	171.15216	574.45929	391.05035	0.00000	0.00000	0.00000	258.46024	432.16626	365.95517	274.82596	387.66150	366.15964	202.58968	406.31219	375.98245	225.26932	364.44244	370.62173	339.69690	143.41602	340.02869	332.85980	143.66890	254.93343	415.96936	140.77820	282.72037	231.73528	50.64993	382.85712	187.53355	63.31065	322.22238	208.78365	57.33717	284.93967	501.42413	1049.48010	154.43398	264.25705	1011.20813	92.35571	335.47473	687.77417	35.18003	334.63809	645.49512	42.04509	398.23993	679.81488	38.18647	386.41254	638.04181	46.40764	336.99109	500.69287	93.69623	329.46201	520.63647	212.42131	449.99286	312.81644	98.60994	452.57895	268.05600	102.32542	388.45535	301.84177	98.01625	399.30267	259.09595	101.19023	450.87943	90.75657	146.20668	424.79889	111.18925	227.25500	506.54791	68.60506	196.91885	302.95456	44.57355	240.16441	266.52457	55.98101	193.85803	320.48257	33.29763	125.79435
635	5.28333	498.88446	1048.27197	257.17603	263.57614	1037.77625	352.04825	238.89999	726.12024	425.30020	210.59035	687.62341	421.57947	186.96136	757.21503	423.10593	167.34901	715.91125	415.82007	158.49416	576.10992	388.81927	0.00000	0.00000	0.00000	239.96742	430.09012	365.12570	254.39650	384.90149	365.69739	183.15080	406.73209	375.00174	204.22729	363.44415	369.95734	309.35031	138.16188	341.42215	303.04056	137.79500	256.61108	385.56659	132.11436	284.24359	197.36356	50.23973	384.31985	154.01463	64.17104	323.42563	175.13123	57.04992	286.15216	493.61542	1049.89966	155.72510	256.93280	1010.86548	91.53572	330.50208	687.68652	35.84554	330.41229	645.42749	42.35532	393.55362	680.18085	38.42950	382.18967	638.39526	46.65328	334.33331	500.56421	93.69583	326.21786	520.42242	212.33000	448.39529	313.41367	98.90980	451.27826	268.66824	102.59795	386.83060	302.07947	98.17630	398.10275	259.38257	101.41035	450.58594	91.23813	146.38631	426.11765	112.53200	228.74445	506.38498	69.15681	197.04050	302.88257	44.49099	240.16667	266.35486	55.78476	193.85851	320.40292	33.24530	125.82644
636	5.29167	490.53711	1048.56287	258.67072	254.71616	1038.33630	351.18127	228.45204	726.74719	424.19308	200.05972	688.91504	419.73929	176.72740	758.33484	421.41486	156.77631	717.11371	413.99362	146.12810	577.49078	386.65320	0.00000	0.00000	0.00000	221.63107	428.02750	364.39948	234.08530	382.20416	365.30005	163.60135	407.03372	373.81216	183.26210	362.46591	369.26129	279.55576	133.37799	343.10629	273.16635	132.64282	257.99133	355.18069	123.67360	286.28766	162.91020	50.30725	385.18665	120.57074	65.76270	323.86536	141.58176	57.47617	286.80673	485.70035	1050.26013	157.11275	249.64803	1010.41443	90.92651	325.75507	687.65356	36.29937	325.83945	645.32379	42.73745	388.71103	680.56091	38.64253	377.78268	638.69421	46.76705	331.81079	500.44037	93.64245	322.95114	520.12878	212.33392	447.02094	314.12399	99.17832	450.22052	269.39172	102.85722	386.41418	303.26279	97.27262	397.05618	259.72647	101.45177	450.24768	91.78455	146.53175	425.57059	112.90154	228.80823	506.20667	69.68545	197.13849	302.73233	44.30095	240.25496	266.17972	55.58312	193.84114	320.34848	33.23764	125.82969
637	5.30000	482.00620	1048.69849	260.20160	245.75401	1038.75098	350.44977	218.16135	727.05286	423.17111	189.23244	689.34308	418.52194	166.64639	759.00372	419.79788	146.51236	717.98114	412.21100	133.81322	578.43939	384.53162	0.00000	0.00000	0.00000	203.12653	425.76047	363.82538	213.71809	379.28802	365.08401	144.37157	407.24991	372.55139	164.89697	366.39948	372.42859	248.25362	128.93016	344.05240	243.42780	127.93960	259.29422	324.60172	115.59380	288.52213	128.33000	50.91360	385.57672	87.31168	67.89872	323.60745	108.37912	58.50818	286.88632	477.92670	1050.58679	158.56129	241.97040	1009.79285	90.15077	320.39005	687.56366	36.80023	321.18494	645.11469	43.03032	383.72449	680.94928	38.70636	373.11850	638.96375	46.85408	329.03647	500.21353	93.55639	319.96295	519.79523	212.36421	445.66553	314.77005	99.53783	449.18793	270.08337	103.21140	385.71280	303.92282	96.69958	396.51889	259.89325	101.70438	449.92273	92.30141	146.70898	425.03320	113.33752	228.90370	505.99753	70.28985	197.24680	302.63843	44.49218	240.06580	266.00772	55.40960	193.79156	320.29874	33.23219	125.80724
638	5.30833	473.45920	1048.77905	261.80307	236.63260	1038.96973	349.72464	207.16377	728.47217	421.70282	178.98961	689.59265	417.20850	156.73300	759.29132	418.37479	136.03400	718.48187	410.76431	121.72573	578.96124	382.48550	0.00000	0.00000	0.00000	184.98770	423.23584	363.32141	194.14641	376.70248	365.40396	125.30300	407.49362	371.77109	143.97055	365.88644	371.70364	217.57468	124.89037	345.64725	213.94720	123.99441	260.37018	294.17368	108.11576	290.96280	93.84454	52.20385	385.39993	54.35258	70.62006	322.81287	75.81028	60.04768	286.42984	469.95792	1050.81396	160.04315	234.65218	1008.98462	89.63596	315.73120	687.36499	36.88293	316.40402	644.93164	43.39074	378.52997	681.28046	38.69712	368.53061	639.34784	46.98338	326.34888	500.07138	93.50475	316.75696	519.28815	212.19417	444.49457	315.43924	99.92799	448.26953	270.74619	103.60568	383.25772	302.82202	98.06264	395.17892	260.34534	101.39348	449.71317	92.86816	146.84935	424.46982	113.80945	228.93480	505.77051	70.71118	197.36980	302.14761	44.69459	239.75044	265.85422	55.24480	193.76140	320.31940	33.24703	125.77399
639	5.31667	464.82172	1048.72156	263.34875	227.37213	1039.05762	349.30936	197.35342	728.18005	420.85660	169.50937	689.46460	415.86249	146.97751	759.09772	417.10193	126.38978	718.33704	409.22537	109.72077	579.09662	380.42651	0.00000	0.00000	0.00000	166.59518	420.78830	362.90616	172.72852	373.75278	364.70361	106.37224	407.67642	370.51871	123.20219	365.37128	370.97888	186.76712	121.09718	346.71429	184.48972	120.23376	261.48474	263.24808	101.00885	293.44070	59.55212	54.09263	384.80307	21.98891	73.88040	321.56488	43.45758	62.27627	285.62979	461.87726	1050.92908	161.55830	227.18993	1008.12256	89.00079	310.44855	687.09845	37.32528	311.47925	644.72968	43.75200	373.26401	681.52435	38.61800	363.89551	639.66132	47.07222	323.55426	499.81863	93.57018	313.55371	518.81061	212.22255	443.18582	316.04291	100.18745	447.24149	271.36722	103.84735	382.12427	303.06674	98.03179	394.49136	260.59494	101.38710	449.54788	93.44302	146.92561	423.99619	114.23037	229.07201	505.56296	71.07455	197.52470	302.16028	44.67109	239.75673	265.76578	55.21375	193.66356	320.29825	33.23904	125.74560
